<svg width="200" height="69" viewBox="0 0 200 69" fill="none" xmlns="http://www.w3.org/2000/svg">
<path d="M33.5298 68.6766H28.3732V46.683L33.5298 49.6553V68.6766Z" fill="#191919"/>
<path d="M0 55.1853V49.229L21.5555 36.7843V42.7406L0 55.1853Z" fill="#191919"/>
<path d="M21.5555 31.8923L0 19.4476V13.4913L21.5555 25.936V31.8923Z" fill="#191919"/>
<path d="M33.5298 19.0301L28.3732 22.0141V0H33.5298V19.0301Z" fill="#191919"/>
<path d="M61.8648 55.1647L30.9515 37.3164V31.3602L61.8648 13.5119V19.4682L36.1081 34.3383L61.8648 49.2084V55.1647Z" fill="#191919"/>
<path d="M92.7457 55.1853V13.5236H98.3228V50.2727H117.362V55.1853H92.7457Z" fill="#191919"/>
<path d="M132.902 55.8791C129.801 55.8791 127.075 55.1912 124.726 53.8124C122.377 52.4365 120.557 50.4961 119.267 47.9913C117.976 45.4865 117.332 42.6465 117.332 39.4685C117.332 36.2904 118.003 33.2858 119.34 30.8016C120.678 28.3173 122.51 26.4211 124.829 25.1099C127.149 23.8016 129.756 23.146 132.643 23.146C135.53 23.146 138.006 23.781 140.184 25.054C142.36 26.3241 144.044 28.1262 145.241 30.4576C146.435 32.789 147.031 35.4937 147.031 38.5747C147.031 38.9216 147.023 39.2833 147.002 39.6596C146.981 40.0359 146.943 40.4827 146.887 41.0031H122.618C122.809 43.1787 123.38 45.0484 124.323 46.6066C125.267 48.1677 126.499 49.3407 128.022 50.1316C129.542 50.9224 131.268 51.3164 133.193 51.3164C134.598 51.3164 135.895 51.0694 137.08 50.5784C138.265 50.0875 139.291 49.3995 140.158 48.5117C141.025 47.6268 141.842 46.7213 142.295 44.7544L147.031 45.7952C146.529 48.5822 144.871 50.5608 143.609 51.8338C142.348 53.1038 140.808 54.0975 138.988 54.809C137.168 55.5204 135.139 55.8791 132.905 55.8791H132.902ZM141.716 36.752C141.64 34.9028 141.225 33.2623 140.472 31.8247C139.72 30.39 138.667 29.2816 137.309 28.5026C135.951 27.7235 134.366 27.3325 132.555 27.3325C130.918 27.3325 129.395 27.6735 127.99 28.3585C126.584 29.0435 125.408 30.0931 124.465 31.5072C123.521 32.9242 122.924 34.6705 122.674 36.752H141.716Z" fill="#191919"/>
<path d="M161.075 55.9085C157.55 55.9085 154.672 55.0412 152.438 53.3096C150.204 51.5751 148.798 49.0732 148.219 45.7981L153.217 44.7574C153.602 46.8771 154.455 48.5264 155.775 49.7112C157.095 50.8959 158.862 51.4869 161.075 51.4869C163.289 51.4869 164.88 51.0635 166.073 50.2168C167.267 49.3701 167.864 48.2236 167.864 46.7801C167.864 45.7217 167.623 44.8779 167.14 44.2517C166.658 43.6255 165.87 43.1022 164.771 42.6759C163.674 42.2526 162.104 41.8292 160.061 41.4059C157.442 40.8855 155.375 40.274 153.864 39.5714C152.353 38.8687 151.238 37.9544 150.527 36.8255C149.816 35.6995 149.457 34.2795 149.457 32.5655C149.457 30.6987 149.924 29.0553 150.859 27.6382C151.794 26.2212 153.155 25.1187 154.949 24.3308C156.739 23.54 158.8 23.146 161.131 23.146C163.463 23.146 165.33 23.5076 167.026 24.2308C168.719 24.9541 170.083 25.9977 171.115 27.3648C172.144 28.7319 172.806 30.3606 173.094 32.248L168.155 33.2888C167.749 31.4601 166.961 30.049 165.785 29.0553C164.609 28.0645 163.078 27.5677 161.19 27.5677C159.879 27.5677 158.75 27.7499 157.794 28.1174C156.842 28.4849 156.113 28.9994 155.613 29.6638C155.113 30.3282 154.86 31.1132 154.86 32.0187C154.86 32.9242 155.072 33.718 155.495 34.2854C155.919 34.8528 156.666 35.3261 157.736 35.7024C158.806 36.0787 160.323 36.4668 162.287 36.8725C165.021 37.4105 167.179 38.0426 168.757 38.7658C170.336 39.489 171.503 40.4181 172.253 41.5529C173.006 42.6906 173.379 44.1341 173.379 45.8863C173.379 47.8708 172.906 49.6083 171.962 51.1017C171.018 52.5952 169.622 53.7683 167.773 54.6267C165.923 55.4822 163.689 55.9115 161.07 55.9115L161.075 55.9085Z" fill="#191919"/>
<path d="M187.696 55.9085C184.171 55.9085 181.293 55.0412 179.059 53.3096C176.825 51.5751 175.419 49.0732 174.84 45.7981L179.838 44.7574C180.223 46.8771 181.076 48.5264 182.396 49.7112C183.716 50.8959 185.483 51.4869 187.696 51.4869C189.91 51.4869 191.501 51.0635 192.694 50.2168C193.888 49.3701 194.485 48.2236 194.485 46.7801C194.485 45.7217 194.244 44.8779 193.761 44.2517C193.279 43.6255 192.491 43.1022 191.392 42.6759C190.295 42.2526 188.725 41.8292 186.682 41.4059C184.063 40.8855 181.996 40.274 180.485 39.5714C178.974 38.8687 177.859 37.9544 177.148 36.8255C176.437 35.6995 176.078 34.2795 176.078 32.5655C176.078 30.6987 176.545 29.0553 177.48 27.6382C178.415 26.2212 179.776 25.1187 181.57 24.3308C183.36 23.54 185.421 23.146 187.752 23.146C190.084 23.146 191.95 23.5076 193.647 24.2308C195.34 24.9541 196.704 25.9977 197.736 27.3648C198.765 28.7319 199.427 30.3606 199.715 32.248L194.776 33.2888C194.37 31.4601 193.582 30.049 192.406 29.0553C191.23 28.0645 189.699 27.5677 187.811 27.5677C186.5 27.5677 185.371 27.7499 184.415 28.1174C183.463 28.4849 182.734 28.9994 182.234 29.6638C181.734 30.3282 181.481 31.1132 181.481 32.0187C181.481 32.9242 181.693 33.718 182.116 34.2854C182.54 34.8528 183.287 35.3261 184.357 35.7024C185.427 36.0787 186.944 36.4668 188.908 36.8725C191.642 37.4105 193.8 38.0426 195.378 38.7658C196.957 39.489 198.124 40.4181 198.874 41.5529C199.627 42.6906 200 44.1341 200 45.8863C200 47.8708 199.527 49.6083 198.583 51.1017C197.639 52.5952 196.243 53.7683 194.394 54.6267C192.544 55.4822 190.31 55.9115 187.691 55.9115L187.696 55.9085Z" fill="#191919"/>
</svg>
